<svg width="32" height="32" viewBox="0 0 32 32" fill="none"
    xmlns="http://www.w3.org/2000/svg">
    <rect width="32" height="32" rx="6" fill="#1E293B"/>
    <path d="M8 12C8 10.8954 8.89543 10 10 10H22C23.1046 10 24 10.8954 24 12V20C24 21.1046 23.1046 22 22 22H10C8.89543 22 8 21.1046 8 20V12Z" fill="#0EA5E9"/>
    <path d="M12 14C12 13.4477 12.4477 13 13 13H19C19.5523 13 20 13.4477 20 14C20 14.5523 19.5523 15 19 15H13C12.4477 15 12 14.5523 12 14Z" fill="#FFFFFF"/>
    <path d="M12 17C12 16.4477 12.4477 16 13 16H17C17.5523 16 18 16.4477 18 17C18 17.5523 17.5523 18 17 18H13C12.4477 18 12 17.5523 12 17Z" fill="#FFFFFF"/>
    <circle cx="20" cy="18" r="2" fill="#FACC15"/>
</svg>
